<svg version="1.1" id="Layer_1" xmlns="http://www.w3.org/2000/svg" xmlns:xlink="http://www.w3.org/1999/xlink" x="0px" y="0px"
	 width="100%" viewBox="0 0 96 96" enable-background="new 0 0 96 96" xml:space="preserve">
<path fill="#ED1C24" opacity="1.000000" stroke="none" 
	d="
M97.000000,26.999985 
	C97.000000,50.666649 97.000000,73.833313 97.000000,96.999977 
	C65.000023,96.999985 33.000042,96.999985 1.000046,96.999992 
	C1.000030,65.000031 1.000030,33.000061 1.000015,1.000067 
	C32.999962,1.000045 64.999924,1.000045 96.999939,1.000022 
	C97.000000,9.499993 97.000000,17.999987 97.000000,26.999985 
M6.134324,7.062043 
	C5.424743,8.374024 4.102607,9.683027 4.096209,10.998428 
	C3.973312,36.263779 3.957295,61.530201 4.128557,86.794991 
	C4.138305,88.233192 5.942183,89.659225 7.067082,91.866295 
	C8.379349,92.575676 9.688653,93.897484 11.004321,93.903839 
	C36.288738,94.026131 61.574009,94.032280 86.858788,93.956406 
	C91.088181,93.943718 93.874115,91.356056 93.901627,87.267616 
	C94.072830,61.817440 94.039993,36.365177 93.853920,10.915222 
	C93.843842,9.537013 91.844894,8.173346 90.789185,6.049398 
	C89.485138,5.367860 88.183846,4.097914 86.876648,4.091819 
	C61.651619,3.974190 36.425579,3.957126 11.201164,4.128308 
	C9.764445,4.138059 8.339874,5.937909 6.134324,7.062043 
z"/>
<path fill="#F1121A" opacity="1.000000" stroke="none" 
	d="
M90.771759,6.802910 
	C91.844894,8.173346 93.843842,9.537013 93.853920,10.915222 
	C94.039993,36.365177 94.072830,61.817440 93.901627,87.267616 
	C93.874115,91.356056 91.088181,93.943718 86.858788,93.956406 
	C61.574009,94.032280 36.288738,94.026131 11.004321,93.903839 
	C9.688653,93.897484 8.379349,92.575676 7.016313,91.450714 
	C6.965544,91.035141 7.020482,90.979797 7.487776,90.986008 
	C33.941784,90.991333 59.928886,90.919899 85.914787,91.064987 
	C89.851097,91.086967 91.108856,89.891350 91.067917,85.930748 
	C90.887123,68.441406 91.020615,50.949066 90.970345,33.458012 
	C90.952682,27.310783 90.734924,21.164129 90.761139,14.618774 
	C90.644592,11.802706 90.375435,9.385077 90.275757,6.938875 
	C90.445236,6.910303 90.771759,6.802911 90.771759,6.802910 
z"/>
<path fill="#F11219" opacity="1.000000" stroke="none" 
	d="
M90.780472,6.426154 
	C90.771759,6.802911 90.445236,6.910303 89.800079,6.936672 
	C61.775070,6.980474 34.395218,6.997908 6.989101,6.987505 
	C6.962838,6.959668 6.909650,6.904626 6.909650,6.904626 
	C8.339874,5.937909 9.764445,4.138059 11.201164,4.128308 
	C36.425579,3.957126 61.651619,3.974190 86.876648,4.091819 
	C88.183846,4.097914 89.485138,5.367860 90.780472,6.426154 
z"/>
<path fill="#F11219" opacity="1.000000" stroke="none" 
	d="
M6.938297,91.063034 
	C5.942183,89.659225 4.138305,88.233192 4.128557,86.794991 
	C3.957295,61.530201 3.973312,36.263779 4.096209,10.998428 
	C4.102607,9.683027 5.424743,8.374024 6.521987,6.983335 
	C6.909650,6.904626 6.962838,6.959668 6.981925,7.433972 
	C7.136092,10.278067 7.271171,12.647858 7.258414,15.463972 
	C7.080545,40.933464 7.050513,65.956627 7.020482,90.979797 
	C7.020482,90.979797 6.965544,91.035141 6.938297,91.063034 
z"/>
<path fill="#9AE6FD" opacity="1.000000" stroke="none" 
	d="
M7.487776,90.986008 
	C7.050513,65.956627 7.080545,40.933464 7.617417,15.463376 
	C9.081726,15.015704 10.039197,15.014952 10.984882,15.481279 
	C10.973097,39.509724 10.973097,63.071091 10.973097,86.740273 
	C12.905405,86.881264 14.047112,87.036537 15.188913,87.037231 
	C37.331268,87.050674 59.474194,86.964989 81.615494,87.118256 
	C85.704689,87.146561 87.158417,85.920578 87.123596,81.712738 
	C86.952782,61.070145 87.067207,40.425308 87.009056,19.781467 
	C87.004532,18.177822 86.447281,16.575733 86.362411,14.963844 
	C86.577888,14.954765 87.003159,14.882631 87.362717,14.914192 
	C88.684357,14.969573 89.646446,14.993394 90.608536,15.017214 
	C90.734924,21.164129 90.952682,27.310783 90.970345,33.458012 
	C91.020615,50.949066 90.887123,68.441406 91.067917,85.930748 
	C91.108856,89.891350 89.851097,91.086967 85.914787,91.064987 
	C59.928886,90.919899 33.941784,90.991333 7.487776,90.986008 
z"/>
<path fill="#94E4F5" opacity="1.000000" stroke="none" 
	d="
M90.761139,14.618775 
	C89.646446,14.993394 88.684357,14.969573 87.363823,14.556461 
	C87.008209,13.447687 87.011032,12.728206 87.149178,11.728672 
	C86.403938,10.968639 85.552490,10.153996 84.637100,10.074366 
	C82.323982,9.873144 79.982117,9.999866 77.651764,9.999801 
	C56.844963,9.999219 36.037926,9.960422 15.231882,10.086112 
	C13.812763,10.094686 12.401114,11.339394 10.987375,12.387362 
	C10.997086,13.521931 11.005411,14.278352 11.005983,15.031135 
	C10.998229,15.027496 10.996667,15.014200 10.996667,15.014200 
	C10.039197,15.014952 9.081726,15.015704 7.765253,15.017053 
	C7.271171,12.647858 7.136092,10.278067 7.008188,7.461809 
	C34.395218,6.997908 61.775070,6.980474 89.630600,6.965243 
	C90.375435,9.385077 90.644592,11.802706 90.761139,14.618775 
z"/>
<path fill="#1BAE43" opacity="1.000000" stroke="none" 
	d="
M86.146927,14.972922 
	C86.447281,16.575733 87.004532,18.177822 87.009056,19.781467 
	C87.067207,40.425308 86.952782,61.070145 87.123596,81.712738 
	C87.158417,85.920578 85.704689,87.146561 81.615494,87.118256 
	C59.474194,86.964989 37.331268,87.050674 15.188913,87.037231 
	C14.047112,87.036537 12.905405,86.881264 10.973097,86.740273 
	C10.973097,63.071091 10.973097,39.509724 10.984882,15.481279 
	C10.996667,15.014200 10.998229,15.027496 11.473625,15.018347 
	C36.681656,14.997106 61.414291,14.985014 86.146927,14.972922 
M80.882057,26.201220 
	C81.617981,22.267536 79.997475,20.913366 76.024345,20.944021 
	C57.605621,21.086123 39.185162,20.996250 20.765358,21.019497 
	C19.651339,21.020903 18.537645,21.282269 17.014824,21.474228 
	C17.159700,23.479883 17.287359,25.247147 17.155817,27.917517 
	C17.242598,43.606995 17.329376,59.296471 17.141758,75.824669 
	C17.141758,77.404320 17.141758,78.983978 17.141758,80.471153 
	C18.207838,80.740509 18.678265,80.962730 19.149010,80.963402 
	C38.395947,80.990982 57.643013,80.967583 76.889801,81.030792 
	C81.643898,81.046402 81.332321,78.207748 80.866798,74.084419 
	C80.780746,58.393932 80.694695,42.703445 80.882057,26.201220 
z"/>
<path fill="#9FDBF2" opacity="1.000000" stroke="none" 
	d="
M86.362411,14.963844 
	C61.414291,14.985014 36.681656,14.997106 11.481379,15.021985 
	C11.005411,14.278352 10.997086,13.521931 11.457560,12.384735 
	C36.955524,12.005548 61.984692,12.007135 87.013855,12.008724 
	C87.011032,12.728206 87.008209,13.447687 87.004272,14.524900 
	C87.003159,14.882631 86.577888,14.954765 86.362411,14.963844 
z"/>
<path fill="#99DAEB" opacity="1.000000" stroke="none" 
	d="
M87.149178,11.728672 
	C61.984692,12.007135 36.955524,12.005548 11.456175,12.006586 
	C12.401114,11.339394 13.812763,10.094686 15.231882,10.086112 
	C36.037926,9.960422 56.844963,9.999219 77.651764,9.999801 
	C79.982117,9.999866 82.323982,9.873144 84.637100,10.074366 
	C85.552490,10.153996 86.403938,10.968639 87.149178,11.728672 
z"/>
<path fill="#A0DBF4" opacity="1.000000" stroke="none" 
	d="
M80.607620,74.988129 
	C81.332321,78.207748 81.643898,81.046402 76.889801,81.030792 
	C57.643013,80.967583 38.395947,80.990982 19.149010,80.963402 
	C18.678265,80.962730 18.207838,80.740509 17.141758,80.471153 
	C17.141758,78.983978 17.141758,77.404320 17.606915,75.407295 
	C18.728302,75.002434 19.384535,75.014946 20.077572,75.420120 
	C21.236656,76.535866 22.353951,77.879837 23.481966,77.888893 
	C40.428600,78.024971 57.377327,78.046585 74.322945,77.858826 
	C75.546326,77.845268 76.749466,76.004936 78.292816,75.010139 
	C79.284950,75.000252 79.946289,74.994194 80.607620,74.988129 
z"/>
<path fill="#A0DCF3" opacity="1.000000" stroke="none" 
	d="
M17.415016,27.014412 
	C17.287359,25.247147 17.159700,23.479883 17.014824,21.474228 
	C18.537645,21.282269 19.651339,21.020903 20.765358,21.019497 
	C39.185162,20.996250 57.605621,21.086123 76.024345,20.944021 
	C79.997475,20.913366 81.617981,22.267536 80.422333,26.609577 
	C79.316376,27.033115 78.670151,27.048292 77.971786,26.661890 
	C76.643600,25.509350 75.373070,24.115749 74.090645,24.104710 
	C57.293243,23.960119 40.493450,23.949129 23.696939,24.140232 
	C22.469131,24.154200 21.262011,25.986395 19.716412,26.979939 
	C18.730040,26.995882 18.072529,27.005146 17.415016,27.014412 
z"/>
<path fill="#9ADCFF" opacity="1.000000" stroke="none" 
	d="
M17.285416,27.465965 
	C18.072529,27.005146 18.730040,26.995882 19.954529,26.993774 
	C20.521503,27.000933 20.999718,27.002544 20.986534,27.470848 
	C20.980480,43.625843 20.987606,59.312531 20.756042,74.999603 
	C20.517355,74.999985 20.040768,75.027458 20.040768,75.027458 
	C19.384535,75.014946 18.728302,75.002434 17.744114,74.987930 
	C17.329376,59.296471 17.242598,43.606995 17.285416,27.465965 
z"/>
<path fill="#9ADCFE" opacity="1.000000" stroke="none" 
	d="
M78.023918,27.063471 
	C78.670151,27.048292 79.316376,27.033115 80.285629,27.015448 
	C80.694695,42.703445 80.780746,58.393932 80.737213,74.536278 
	C79.946289,74.994194 79.284950,75.000252 77.873070,74.917450 
	C76.841125,74.772758 76.559723,74.716919 76.482956,74.254562 
	C76.803749,72.033844 77.011543,70.220123 77.021416,68.405342 
	C77.094757,54.925331 77.128807,41.445103 77.341141,27.838854 
	C77.710205,27.520889 77.882484,27.304459 78.023918,27.063471 
z"/>
<path fill="#94DAF6" opacity="1.000000" stroke="none" 
	d="
M76.278320,74.661072 
	C76.559723,74.716919 76.841125,74.772758 77.542267,74.921280 
	C76.749466,76.004936 75.546326,77.845268 74.322945,77.858826 
	C57.377327,78.046585 40.428600,78.024971 23.481966,77.888893 
	C22.353951,77.879837 21.236656,76.535866 20.077572,75.420120 
	C20.040768,75.027458 20.517355,74.999985 21.225128,75.006790 
	C24.594513,75.014534 27.256252,75.032906 29.917717,75.013519 
	C45.371288,74.900955 60.824791,74.779510 76.278320,74.661072 
z"/>
<path fill="#94DAF6" opacity="1.000000" stroke="none" 
	d="
M77.971786,26.661890 
	C77.882484,27.304459 77.710205,27.520889 76.921738,27.729357 
	C74.911949,27.495987 73.488121,27.032616 72.062988,27.028580 
	C55.042007,26.980350 38.020840,27.000383 20.999718,27.002544 
	C20.999718,27.002544 20.521503,27.000933 20.283388,26.987095 
	C21.262011,25.986395 22.469131,24.154200 23.696939,24.140232 
	C40.493450,23.949129 57.293243,23.960119 74.090645,24.104710 
	C75.373070,24.115749 76.643600,25.509350 77.971786,26.661890 
z"/>
<path fill="#FFC802" opacity="1.000000" stroke="none" 
	d="
M20.986534,27.470848 
	C38.020840,27.000383 55.042007,26.980350 72.062988,27.028580 
	C73.488121,27.032616 74.911949,27.495987 76.755791,27.855450 
	C77.128807,41.445103 77.094757,54.925331 77.021416,68.405342 
	C77.011543,70.220123 76.803749,72.033844 76.482956,74.254562 
	C60.824791,74.779510 45.371288,74.900955 29.917717,75.013519 
	C27.256252,75.032906 24.594513,75.014534 21.463816,75.006409 
	C20.987606,59.312531 20.980480,43.625843 20.986534,27.470848 
M71.252869,33.777588 
	C71.209747,33.360199 71.166634,32.942814 71.123512,32.525425 
	C70.734573,32.742386 70.345634,32.959347 69.035629,33.026440 
	C55.141857,33.026440 41.248081,33.026440 27.295048,33.026440 
	C27.295048,45.337711 27.295048,56.900860 27.295048,68.992996 
	C41.005318,68.992996 54.431545,69.084915 67.850670,68.818748 
	C68.925865,68.797432 70.834190,66.324699 70.860634,64.962151 
	C71.060570,54.659534 70.886757,44.349670 71.252869,33.777588 
z"/>
<path fill="#93DAF7" opacity="1.000000" stroke="none" 
	d="
M70.829590,34.042068 
	C70.886757,44.349670 71.060570,54.659534 70.860634,64.962151 
	C70.834190,66.324699 68.925865,68.797432 67.850670,68.818748 
	C54.431545,69.084915 41.005318,68.992996 27.295048,68.992996 
	C27.295048,56.900860 27.295048,45.337711 27.295048,33.026440 
	C41.248081,33.026440 55.141857,33.026440 69.525009,33.338924 
	C70.195488,33.970768 70.467224,34.100990 70.829590,34.042068 
M62.956135,39.159199 
	C62.829155,39.789158 62.702175,40.419121 62.506432,41.102394 
	C62.506432,41.102394 62.439861,41.046356 63.486065,40.392181 
	C60.329132,39.806660 57.172195,39.221134 53.782951,37.959202 
	C50.030045,34.773132 46.437508,34.978046 42.186634,38.605961 
	C40.038162,38.723362 37.889687,38.840763 34.931377,40.055084 
	C35.292007,40.331696 35.652634,40.608303 36.260620,39.694435 
	C35.517902,39.574776 34.775185,39.455116 34.153522,39.027786 
	C34.153522,39.027786 34.028053,38.721878 33.543839,38.372551 
	C29.297613,36.868145 30.146072,40.411037 30.091505,42.251923 
	C29.886698,49.161419 30.007208,56.080555 30.096249,63.787609 
	C31.503504,64.523300 32.870598,65.781731 34.325783,65.893532 
	C38.197117,66.190948 42.106411,65.994232 46.921806,65.997055 
	C50.614609,65.996170 54.307415,65.995277 58.910362,65.997208 
	C60.901299,65.983032 62.958832,66.267151 64.858253,65.843079 
	C66.002274,65.587662 67.701904,64.289978 67.771523,63.357582 
	C68.091812,59.068256 68.064590,54.734684 67.816719,50.436897 
	C67.768028,49.592846 66.193123,48.836815 65.341232,47.140209 
	C64.959679,44.567322 64.578125,41.994434 62.956135,39.159199 
z"/>
<path fill="#E5CD46" opacity="1.000000" stroke="none" 
	d="
M71.041229,33.909828 
	C70.467224,34.100990 70.195488,33.970768 69.985535,33.413857 
	C70.345634,32.959347 70.734573,32.742386 71.123512,32.525425 
	C71.166634,32.942814 71.209747,33.360199 71.041229,33.909828 
z"/>
<path fill="#99D9EA" opacity="1.000000" stroke="none" 
	d="
M65.322113,48.040188 
	C66.193123,48.836815 67.768028,49.592846 67.816719,50.436897 
	C68.064590,54.734684 68.091812,59.068256 67.771523,63.357582 
	C67.701904,64.289978 66.002274,65.587662 64.858253,65.843079 
	C62.958832,66.267151 60.901299,65.983032 58.449368,65.627769 
	C57.291901,64.160805 56.595432,63.063282 55.950890,61.519768 
	C56.319355,57.397720 56.635891,53.721664 57.063255,49.891426 
	C57.174088,49.737240 57.162430,49.357677 57.648895,49.349766 
	C59.567539,49.257607 61.006943,49.219357 62.417572,48.997852 
	C62.525192,48.980957 62.429123,47.666924 62.461006,46.922676 
	C62.494278,46.889526 62.573086,46.940647 62.259735,47.497860 
	C62.699085,48.229534 63.451786,48.403996 64.504456,48.486580 
	C64.976990,48.276531 65.149551,48.158360 65.322113,48.040188 
z"/>
<path fill="#9ADAEB" opacity="1.000000" stroke="none" 
	d="
M55.898960,61.965759 
	C56.595432,63.063282 57.291901,64.160805 57.994293,65.626358 
	C54.307415,65.995277 50.614609,65.996170 46.461044,65.621353 
	C46.000137,64.496956 45.999992,63.748257 46.360046,62.845108 
	C47.045540,62.324661 47.647354,61.964378 47.655048,61.591831 
	C47.792156,54.950645 47.970539,48.305157 47.805779,41.668896 
	C47.783131,40.756618 45.979137,39.888569 44.749104,38.991241 
	C44.334850,39.017735 44.171345,39.053036 43.761478,38.924599 
	C43.343536,38.663624 43.171963,38.566387 43.000393,38.469154 
	C46.437508,34.978046 50.030045,34.773132 53.672256,38.430984 
	C53.390186,38.940025 53.218807,38.977287 52.648865,39.059227 
	C51.515057,40.028690 50.173180,40.934254 50.143185,41.881371 
	C49.950932,47.951527 49.903492,54.037605 50.191772,60.100224 
	C50.238544,61.083839 52.193535,61.976719 53.547337,62.862583 
	C54.518444,62.531006 55.208702,62.248383 55.898960,61.965759 
z"/>
<path fill="#9BDBEC" opacity="1.000000" stroke="none" 
	d="
M45.999847,62.999561 
	C45.999992,63.748257 46.000137,64.496956 46.000443,65.619827 
	C42.106411,65.994232 38.197117,66.190948 34.325783,65.893532 
	C32.870598,65.781731 31.503504,64.523300 30.457947,63.388611 
	C31.633379,62.963524 32.447113,62.937439 33.506310,62.871861 
	C34.085415,62.805897 34.414749,62.832596 35.151161,62.891190 
	C36.291817,62.327133 37.664364,61.769363 37.652126,61.243851 
	C37.509964,55.140427 37.158783,49.041866 36.905716,42.722881 
	C36.948441,42.503742 36.939190,42.057312 37.054436,41.903847 
	C37.169685,41.750385 37.164322,41.366596 37.531120,41.354073 
	C38.876431,41.347630 39.854939,41.353710 40.833931,41.553665 
	C40.834412,41.747540 41.063221,42.060680 41.057354,42.282578 
	C41.051487,42.504471 41.135147,42.940468 40.876633,43.272217 
	C40.429474,49.114098 40.085640,54.627468 40.200714,60.131245 
	C40.220535,61.078999 42.191208,61.985966 43.507965,62.871971 
	C44.087337,62.855930 44.419476,62.879692 45.063889,62.924629 
	C45.584061,62.963730 45.791954,62.981644 45.999847,62.999561 
z"/>
<path fill="#202D30" opacity="1.000000" stroke="none" 
	d="
M34.739777,62.912460 
	C34.414749,62.832596 34.085415,62.805897 33.264462,62.516502 
	C32.547928,55.081757 32.263000,47.963543 32.177055,40.842930 
	C32.168610,40.143459 33.381863,39.429249 34.028053,38.721878 
	C34.028053,38.721878 34.153522,39.027786 34.336983,39.535133 
	C35.018047,40.323296 35.515652,40.604103 36.013260,40.884911 
	C35.652634,40.608303 35.292007,40.331696 35.360172,40.024872 
	C35.861801,40.332111 35.934635,40.669563 36.018272,41.273380 
	C36.332451,41.712269 36.635818,41.884789 36.939190,42.057312 
	C36.939190,42.057312 36.948441,42.503742 36.551163,42.917206 
	C35.768322,44.821709 35.111519,46.301075 35.046753,47.805916 
	C34.830254,52.836517 34.825584,57.876236 34.739777,62.912460 
z"/>
<path fill="#A0E4F6" opacity="1.000000" stroke="none" 
	d="
M33.785946,38.547215 
	C33.381863,39.429249 32.168610,40.143459 32.177055,40.842930 
	C32.263000,47.963543 32.547928,55.081757 33.018997,62.556000 
	C32.447113,62.937439 31.633379,62.963524 30.412724,62.992844 
	C30.007208,56.080555 29.886698,49.161419 30.091505,42.251923 
	C30.146072,40.411037 29.297613,36.868145 33.785946,38.547215 
z"/>
<path fill="#A8EEFD" opacity="1.000000" stroke="none" 
	d="
M62.573086,46.940647 
	C62.573086,46.940647 62.494278,46.889526 62.022919,46.782669 
	C59.713142,46.708302 57.874718,46.740795 55.995564,46.670315 
	C55.954830,46.567337 55.738907,46.616653 55.659149,46.247314 
	C55.625362,44.383877 55.671329,42.889778 55.852707,41.412079 
	C55.988113,41.428478 56.092522,41.176449 56.542221,41.263508 
	C58.807899,41.249165 60.623878,41.147758 62.439861,41.046356 
	C62.439861,41.046356 62.506432,41.102394 62.457378,41.369728 
	C62.547997,41.785004 62.687668,41.932949 62.752052,42.461903 
	C62.728302,43.873520 62.779839,44.904133 62.625778,46.150009 
	C62.471153,46.557068 62.522118,46.748856 62.573086,46.940647 
z"/>
<path fill="#223034" opacity="1.000000" stroke="none" 
	d="
M62.962963,40.719269 
	C60.623878,41.147758 58.807899,41.249165 56.324471,41.046356 
	C55.109241,40.496254 54.561459,40.250359 53.730793,39.994133 
	C53.259377,39.975597 53.070839,39.967396 52.934765,39.724987 
	C52.987228,39.490780 53.047428,39.014549 53.047428,39.014549 
	C53.218807,38.977287 53.390186,38.940025 53.788414,38.769188 
	C57.172195,39.221134 60.329132,39.806660 62.962963,40.719269 
z"/>
<path fill="#223034" opacity="1.000000" stroke="none" 
	d="
M40.833447,41.359791 
	C39.854939,41.353710 38.876431,41.347630 37.256344,41.217682 
	C36.412331,41.064877 36.209900,41.035946 36.007465,41.007015 
	C35.934635,40.669563 35.861801,40.332111 35.765091,39.476410 
	C37.889687,38.840763 40.038162,38.723362 42.593513,38.537560 
	C43.171963,38.566387 43.343536,38.663624 43.959824,39.209435 
	C44.553295,39.835255 44.702053,40.012493 44.903992,40.420422 
	C44.957176,40.651108 44.778820,41.089706 44.517570,40.884888 
	C43.671612,40.696861 43.086895,40.713654 42.377262,40.799614 
	C42.252342,40.868778 41.999130,41.000839 41.693565,41.044640 
	C41.203148,41.178894 41.018295,41.269344 40.833447,41.359791 
z"/>
<path fill="#202D30" opacity="1.000000" stroke="none" 
	d="
M62.831375,45.934746 
	C62.779839,44.904133 62.728302,43.873520 63.014786,42.185814 
	C63.634056,40.826324 63.915310,40.123936 64.196564,39.421547 
	C64.578125,41.994434 64.959679,44.567322 65.331673,47.590199 
	C65.149551,48.158360 64.976990,48.276531 64.406189,48.117344 
	C63.615768,47.204903 63.223572,46.569824 62.831375,45.934746 
z"/>
<path fill="#0C1112" opacity="1.000000" stroke="none" 
	d="
M63.576347,39.290375 
	C63.915310,40.123936 63.634056,40.826324 63.090073,41.804810 
	C62.687668,41.932949 62.547997,41.785004 62.491760,41.343071 
	C62.702175,40.419121 62.829155,39.789158 63.576347,39.290375 
z"/>
<path fill="#0C1112" opacity="1.000000" stroke="none" 
	d="
M36.136940,40.289673 
	C35.515652,40.604103 35.018047,40.323296 34.276451,39.688972 
	C34.775185,39.455116 35.517902,39.574776 36.136940,40.289673 
z"/>
<path fill="#202D30" opacity="1.000000" stroke="none" 
	d="
M52.882301,39.959194 
	C53.070839,39.967396 53.259377,39.975597 53.965469,40.280186 
	C54.894447,40.849609 55.305874,41.122643 55.717297,41.395676 
	C55.671329,42.889778 55.625362,44.383877 55.427322,46.411705 
	C55.424751,47.543262 55.574261,48.141087 55.788124,48.803055 
	C55.852482,48.867199 55.987877,48.988411 55.997444,49.262260 
	C56.322151,49.705944 56.637291,49.875778 56.952427,50.045612 
	C56.635891,53.721664 56.319355,57.397720 55.950890,61.519768 
	C55.208702,62.248383 54.518444,62.531006 53.304031,62.507912 
	C52.814018,54.787865 52.848160,47.373531 52.882301,39.959194 
z"/>
<path fill="#223034" opacity="1.000000" stroke="none" 
	d="
M56.036297,46.773293 
	C57.874718,46.740795 59.713142,46.708302 61.989647,46.815819 
	C62.429123,47.666924 62.525192,48.980957 62.417572,48.997852 
	C61.006943,49.219357 59.567539,49.257607 57.369179,49.213104 
	C56.397961,49.052372 56.192921,49.020390 55.987877,48.988411 
	C55.987877,48.988411 55.852482,48.867199 55.872562,48.482914 
	C55.940529,47.656849 55.988411,47.215073 56.036297,46.773293 
z"/>
<path fill="#0C1112" opacity="1.000000" stroke="none" 
	d="
M62.625778,46.150009 
	C63.223572,46.569824 63.615768,47.204903 64.106224,48.209221 
	C63.451786,48.403996 62.699085,48.229534 62.259735,47.497860 
	C62.522118,46.748856 62.471153,46.557068 62.625778,46.150009 
z"/>
<path fill="#6A97A2" opacity="1.000000" stroke="none" 
	d="
M55.997444,49.262260 
	C56.192921,49.020390 56.397961,49.052372 56.882713,49.221016 
	C57.162430,49.357677 57.174088,49.737240 57.063255,49.891426 
	C56.637291,49.875778 56.322151,49.705944 55.997444,49.262260 
z"/>
<path fill="#A0E4F6" opacity="1.000000" stroke="none" 
	d="
M46.360046,62.845108 
	C45.791954,62.981644 45.584061,62.963730 45.153755,62.469784 
	C44.880680,55.048473 44.830009,48.103195 44.762321,41.139832 
	C44.745300,41.121746 44.778820,41.089706 44.778820,41.089706 
	C44.778820,41.089706 44.957176,40.651108 44.987354,40.233799 
	C45.035427,39.543827 45.029537,39.271679 44.999855,39.000046 
	C45.979137,39.888569 47.783131,40.756618 47.805779,41.668896 
	C47.970539,48.305157 47.792156,54.950645 47.655048,61.591831 
	C47.647354,61.964378 47.045540,62.324661 46.360046,62.845108 
z"/>
<path fill="#A1E4F6" opacity="1.000000" stroke="none" 
	d="
M52.934765,39.724987 
	C52.848160,47.373531 52.814018,54.787865 53.023186,62.556870 
	C52.193535,61.976719 50.238544,61.083839 50.191772,60.100224 
	C49.903492,54.037605 49.950932,47.951527 50.143185,41.881371 
	C50.173180,40.934254 51.515057,40.028690 52.648865,39.059227 
	C53.047428,39.014549 52.987228,39.490780 52.934765,39.724987 
z"/>
<path fill="#202D30" opacity="1.000000" stroke="none" 
	d="
M44.749104,38.991241 
	C45.029537,39.271679 45.035427,39.543827 44.934174,40.003113 
	C44.702053,40.012493 44.553295,39.835255 44.206192,39.373177 
	C44.171345,39.053036 44.334850,39.017735 44.749104,38.991241 
z"/>
<path fill="#202D30" opacity="1.000000" stroke="none" 
	d="
M44.779343,41.157913 
	C44.830009,48.103195 44.880680,55.048473 44.841476,62.448601 
	C44.419476,62.879692 44.087337,62.855930 43.266281,62.516617 
	C42.519325,59.805672 42.211544,57.414364 42.014427,55.013973 
	C41.684193,50.992519 41.424519,46.965275 41.135147,42.940468 
	C41.135147,42.940468 41.051487,42.504471 41.312233,42.196438 
	C41.715031,41.592552 41.857082,41.296696 41.999130,41.000839 
	C41.999130,41.000839 42.252342,40.868778 42.744545,40.911644 
	C43.750942,41.022308 44.265144,41.090107 44.779343,41.157913 
z"/>
<path fill="#A0E4F6" opacity="1.000000" stroke="none" 
	d="
M35.151161,62.891190 
	C34.825584,57.876236 34.830254,52.836517 35.046753,47.805916 
	C35.111519,46.301075 35.768322,44.821709 36.508438,43.136345 
	C37.158783,49.041866 37.509964,55.140427 37.652126,61.243851 
	C37.664364,61.769363 36.291817,62.327133 35.151161,62.891190 
z"/>
<path fill="#A1E4F6" opacity="1.000000" stroke="none" 
	d="
M40.876633,43.272217 
	C41.424519,46.965275 41.684193,50.992519 42.014427,55.013973 
	C42.211544,57.414364 42.519325,59.805672 43.019043,62.556416 
	C42.191208,61.985966 40.220535,61.078999 40.200714,60.131245 
	C40.085640,54.627468 40.429474,49.114098 40.876633,43.272217 
z"/>
<path fill="#6B98A4" opacity="1.000000" stroke="none" 
	d="
M41.693565,41.044640 
	C41.857082,41.296696 41.715031,41.592552 41.318100,41.974541 
	C41.063221,42.060680 40.834412,41.747540 40.833931,41.553665 
	C41.018295,41.269344 41.203148,41.178894 41.693565,41.044640 
z"/>
<path fill="#6B98A4" opacity="1.000000" stroke="none" 
	d="
M36.018272,41.273380 
	C36.209900,41.035946 36.412331,41.064877 36.889542,41.230202 
	C37.164322,41.366596 37.169685,41.750385 37.054436,41.903847 
	C36.635818,41.884789 36.332451,41.712269 36.018272,41.273380 
z"/>
<path fill="#161F21" opacity="1.000000" stroke="none" 
	d="
M55.995564,46.670315 
	C55.988411,47.215073 55.940529,47.656849 55.808205,48.418770 
	C55.574261,48.141087 55.424751,47.543262 55.507076,46.781044 
	C55.738907,46.616653 55.954830,46.567337 55.995564,46.670315 
z"/>
<path fill="#0C1112" opacity="1.000000" stroke="none" 
	d="
M55.852707,41.412079 
	C55.305874,41.122643 54.894447,40.849609 54.248352,40.290520 
	C54.561459,40.250359 55.109241,40.496254 55.874771,40.959297 
	C56.092522,41.176449 55.988113,41.428478 55.852707,41.412079 
z"/>
<path fill="#0C1112" opacity="1.000000" stroke="none" 
	d="
M44.762321,41.139828 
	C44.265144,41.090107 43.750942,41.022308 42.869461,40.842476 
	C43.086895,40.713654 43.671612,40.696861 44.517570,40.884888 
	C44.778820,41.089706 44.745300,41.121746 44.762321,41.139828 
z"/>
</svg>